<?xml version="1.0" encoding="UTF-8"?>
<svg id="Layer_1" xmlns="http://www.w3.org/2000/svg" version="1.1" xmlns:xlink="http://www.w3.org/1999/xlink" viewBox="0 0 1723.07 564.64">
  <!-- Generator: Adobe Illustrator 30.6.0, SVG Export Plug-In . SVG Version: 2.1.4 Build 109)  -->
  <defs>
    <style>
      .st0 {
        fill: #9d968a;
      }

      .st1 {
        fill: #9f988b;
      }

      .st2 {
        clip-path: url(#clippath-6);
      }

      .st3 {
        clip-path: url(#clippath-7);
      }

      .st4 {
        clip-path: url(#clippath-17);
      }

      .st5 {
        clip-path: url(#clippath-31);
      }

      .st6 {
        clip-path: url(#clippath-15);
      }

      .st7 {
        fill: #db1616;
      }

      .st8 {
        clip-path: url(#clippath-4);
      }

      .st9 {
        clip-path: url(#clippath-22);
      }

      .st10 {
        clip-path: url(#clippath-23);
      }

      .st11 {
        fill: #5e5a5a;
      }

      .st12 {
        clip-path: url(#clippath-9);
      }

      .st13 {
        fill: #0086bf;
      }

      .st14 {
        fill: #ffa400;
      }

      .st15 {
        fill: #3921e8;
      }

      .st16 {
        fill: #fff;
      }

      .st17 {
        clip-path: url(#clippath-25);
      }

      .st18 {
        fill: #222424;
      }

      .st19 {
        fill: #7fceff;
      }

      .st20 {
        clip-path: url(#clippath-28);
      }

      .st21 {
        fill: #9d9689;
      }

      .st22 {
        clip-path: url(#clippath-1);
      }

      .st23 {
        clip-path: url(#clippath-20);
      }

      .st24 {
        clip-path: url(#clippath-12);
      }

      .st25 {
        clip-path: url(#clippath-14);
      }

      .st26 {
        fill: #233741;
      }

      .st27 {
        clip-path: url(#clippath-30);
      }

      .st28 {
        fill: #222526;
      }

      .st29 {
        fill: #999696;
      }

      .st30 {
        fill: #222425;
      }

      .st31 {
        fill: #000abf;
      }

      .st32 {
        fill: #9f978a;
      }

      .st33 {
        fill: #b70000;
      }
    </style>
    <clipPath id="clippath-1">
      <polygon class="st32" points="118.47 145.32 114.47 158.11 202.79 158.11 204.63 141.8 118.47 145.32"/>
    </clipPath>
    <clipPath id="clippath-4">
      <path class="st1" d="M101.27,123.68c-1.07.78-2.51,2.09-3.2,4.07,0,0-4.69,9.05,5.46,14.12,3.85,1.93,95.01,19.36,116.52-9.1,0,0,.16-4.92-4.55-9.68,0,0-2.19-2.84.64-6.58,2.84-3.74-10.11-1.18-10.11-1.18-34.92,2.78-69.84,5.56-104.76,8.34Z"/>
    </clipPath>
    <clipPath id="clippath-6">
      <rect class="st16" x="192.11" y="171.3" width="17.67" height="10.53"/>
    </clipPath>
    <clipPath id="clippath-7">
      <rect x="170.21" y="171.48" width="15.42" height="10.17"/>
    </clipPath>
    <clipPath id="clippath-9">
      <polygon class="st32" points="538.73 133.75 537.33 147.08 623.9 129.64 622.49 113.28 538.73 133.75"/>
    </clipPath>
    <clipPath id="clippath-12">
      <path class="st1" d="M517.59,115.94c-.89.97-2.05,2.54-2.33,4.62,0,0-2.82,9.8,8.14,12.77,4.16,1.13,96.96.22,112.43-31.93,0,0-.81-4.85-6.37-8.59,0,0-2.71-2.35-.67-6.58,2.04-4.23-10.14.84-10.14.84-33.68,9.62-67.37,19.24-101.05,28.87Z"/>
    </clipPath>
    <clipPath id="clippath-14">
      <rect class="st16" x="616.91" y="142.83" width="17.67" height="10.53" transform="translate(-16.92 126.5) rotate(-11.39)"/>
    </clipPath>
    <clipPath id="clippath-15">
      <rect x="595.46" y="147.56" width="15.42" height="10.17" transform="translate(-18.27 122.13) rotate(-11.39)"/>
    </clipPath>
    <clipPath id="clippath-17">
      <polygon class="st32" points="978.13 141.68 976.08 154.92 1063.41 141.72 1062.79 125.32 978.13 141.68"/>
    </clipPath>
    <clipPath id="clippath-20">
      <path class="st1" d="M957.88,122.86c-.94.93-2.17,2.44-2.55,4.5,0,0-3.29,9.65,7.51,13.15,4.1,1.33,96.84,4.94,113.85-26.41,0,0-.58-4.89-5.94-8.89,0,0-2.59-2.48-.35-6.6,2.24-4.13-10.17.35-10.17.35-34.11,7.97-68.23,15.94-102.34,23.91Z"/>
    </clipPath>
    <clipPath id="clippath-22">
      <rect class="st16" x="1055.51" y="154.98" width="17.67" height="10.53" transform="translate(-12 160.89) rotate(-8.6)"/>
    </clipPath>
    <clipPath id="clippath-23">
      <rect x="1033.87" y="158.61" width="15.42" height="10.17" transform="translate(-12.77 157.53) rotate(-8.6)"/>
    </clipPath>
    <clipPath id="clippath-25">
      <polygon class="st32" points="1444.13 160.69 1444.95 174.06 1527.47 142.59 1523.38 126.7 1444.13 160.69"/>
    </clipPath>
    <clipPath id="clippath-28">
      <path class="st1" d="M1420.35,146.6c-.72,1.11-1.6,2.85-1.54,4.94,0,0-1.16,10.13,10.13,11.25,4.29.43,95.67-15.77,105.63-50.02,0,0-1.6-4.65-7.7-7.42,0,0-3.06-1.87-1.74-6.38,1.31-4.51-9.87,2.5-9.87,2.5-31.64,15.04-63.28,30.08-94.91,45.12Z"/>
    </clipPath>
    <clipPath id="clippath-30">
      <rect class="st16" x="1523.49" y="155.23" width="17.67" height="10.53" transform="translate(43.4 556.57) rotate(-20.88)"/>
    </clipPath>
    <clipPath id="clippath-31">
      <rect x="1503.1" y="163.62" width="15.42" height="10.17" transform="translate(39.06 549.44) rotate(-20.88)"/>
    </clipPath>
  </defs>
  <g>
    <path class="st16" d="M818.44,30.11h21.74-21.74Z"/>
    <path d="M840.18,30.11h-21.74,21.74Z"/>
  </g>
  <path class="st28" d="M1512.84,420.61l-33.44,41.79,29.12,52.36,37.22,6.35,11.12-29.51c-5.09-4.28-10.17-8.57-15.26-12.85.72-15.5,1.44-30.99,2.15-46.49l-30.92-11.66Z"/>
  <path class="st28" d="M1615.83,414.33l5.82,48.79,53.02,14.65,28.11-20.27-12.15-26.28c-6.08.57-12.15,1.14-18.23,1.72-9.68-10.45-19.36-20.89-29.04-31.34l-27.53,12.73Z"/>
  <path class="st31" d="M0,461.61"/>
  <g>
    <path class="st0" d="M255.6,275.55c-24.75,10.86-36.63-33.94-41.63-43.38-5.01-9.44-14.18-35.78-16.32-47.76-2.15-11.99-8.45-15.61-1.65-24.82s28.96-1.19,49.86,52.47c20.89,53.66,25.14,56.74,9.76,63.49Z"/>
    <path class="st0" d="M222.77,329.66c3.19-49.37,2.53-66.09,9.28-71.3,1.81-1.4,5.78-.06,11.95-2.1,9.45-3.12,12-8.01,14.63-7.62,4.25.62,8.5,14.95,8.21,76.03"/>
    <circle class="st30" cx="244.81" cy="323.89" r="29.32"/>
    <rect class="st29" x="192.11" y="171.63" width="7.8" height="5.28"/>
    <path class="st28" d="M109.23,464.94l-18.41,56.62,50.86,43.08,41.23-8v-35.08c-6.97-2.46-13.95-4.92-20.92-7.39-5.33-16.41-10.67-32.82-16-49.23h-36.76Z"/>
    <polygon class="st28" points="204.63 464.94 204.63 510.48 238.3 540.64 271.53 537.56 274.12 507.41 251.84 493.25 241.99 464.94 204.63 464.94"/>
    <polygon class="st21" points="93.61 321.4 104.96 421.1 108.92 426.33 152.96 427.87 158.5 422.33 165.89 365.41 189.58 420.18 194.2 425.1 226.2 416.79 229.27 410.03 218.23 313.26 98.19 311.56 95.16 315.86 93.61 321.4"/>
    <path class="st21" d="M87.37,507.37c5.68-36.21,11.35-72.42,17.03-108.63,18.42,3.36,36.84,6.72,55.26,10.08-.6,29.23-1.2,58.46-1.79,87.69l11.81,16.3-82.3-5.43Z"/>
    <path class="st21" d="M201.96,503.72c-7.6-39.44-15.19-78.88-22.79-118.31h42.95l41.37,110.36-61.53,7.96Z"/>
    <path class="st21" d="M188.86,418.12"/>
    <rect class="st11" x="64.02" y="151.07" width="129" height="157.12" rx="64.5" ry="64.5"/>
    <path class="st11" d="M328.95,135.02"/>
    <g>
      <g>
        <polygon class="st32" points="118.47 145.32 114.47 158.11 202.79 158.11 204.63 141.8 118.47 145.32"/>
        <g class="st22">
          <rect class="st32" x="121.24" y="118.1" width="10.77" height="56.62"/>
          <rect class="st32" x="154.17" y="121.64" width="10.77" height="56.62"/>
          <rect class="st32" x="154.17" y="121.64" width="10.77" height="56.62"/>
          <rect class="st32" x="188.94" y="121.64" width="10.77" height="56.62"/>
          <rect class="st32" x="172.32" y="120.14" width="10.77" height="56.62"/>
          <rect class="st32" x="137.24" y="121.64" width="10.77" height="56.62"/>
        </g>
      </g>
      <path class="st32" d="M218.54,317.51c-31.39,7.65-62.77,15.3-94.16,22.96v-183.33h94.16v160.37Z"/>
      <path class="st32" d="M124.54,339.62c-9.69-5.71-19.37-11.42-29.06-17.14-.52-55.75-1.05-111.5-1.57-167.25,10.21.63,20.42,1.27,30.63,1.9v182.48Z"/>
    </g>
    <rect class="st11" x="130.1" y="201.84" width="76.11" height="91.18"/>
    <path class="st32" d="M46.45,284.3c-25.96-11.99,1.51-52.17,5.55-62.61s18.66-35.78,26.73-45.71,6.56-17.39,18.66-18.39c12.1-.99,21.18,21.97-7.06,75.33-28.24,53.36-27.73,58.83-43.87,51.38Z"/>
    <path class="st32" d="M69.73,334.24c-29.31-50.63-34.99-63.63-33.57-64.52.86-.54,2.86,2.85,6.4,2.94,10.86.29,15.15-31.07,23.91-32.1,6.1-.71,15.48,13.15,30.51,64.85"/>
    <ellipse class="st18" cx="90.82" cy="334.24" rx="31.1" ry="30.64"/>
    <g>
      <path class="st1" d="M218.86,120.29c-.04-.06-.08-.12-.11-.18-.03-.04-.06-.08-.09-.12-.04-.06-.1-.13-.15-.19-.02-.02-.03-.05-.04-.07-.01-.02-.03-.04-.04-.06-.11-.16-.2-.33-.25-.52,0-.02,0-.04,0-.07-1.2-1.71-1.34-4.06-2.02-6.03-.14-.41-.12-.77,0-1.07l-10.81-51.25s-5.29-19.26-27.09-27.6c-21.81-8.34-61.12.64-71.69,13.8-10.57,13.16-21.48,63.22-4.63,74.14,0,0,.33,4.49-2.31,6.1,0,0,4.96,14.12,6.61,14.44,1.65.32,109.36,13.8,117.62-10.27,0,0-3.91-6.02-4.97-11.04Z"/>
      <g>
        <path class="st1" d="M101.27,123.68c-1.07.78-2.51,2.09-3.2,4.07,0,0-4.69,9.05,5.46,14.12,3.85,1.93,95.01,19.36,116.52-9.1,0,0,.16-4.92-4.55-9.68,0,0-2.19-2.84.64-6.58,2.84-3.74-10.11-1.18-10.11-1.18-34.92,2.78-69.84,5.56-104.76,8.34Z"/>
        <g class="st8">
          <path class="st1" d="M278.08,144.55"/>
          <path class="st1" d="M88.7,116.94"/>
          <path class="st1" d="M65.91,98.52c1.6.64,66.77,66.77,214.1,72.22,147.33,5.46-144.77,28.57-147.33,28.57s-88.59-32.42-88.59-32.42l21.83-68.37Z"/>
          <path class="st1" d="M143.59,61.09"/>
        </g>
      </g>
    </g>
    <path class="st29" d="M131.14,52.07"/>
    <path class="st19" d="M215.22,107.74c-3.67,7.86-12.17,12.68-19.62,13.92-3.05.51-6.1.37-12.2.01-4.21-.24-7.72-.66-9.42-.9-11.44-1.62-25.74-3.64-34.66-14.45-6.05-7.33-7.07-15.61-7.6-19.9-.65-5.26-1.92-15.11,3.85-22.79,3.66-4.87,8.93-7.48,17.33-9.63,18.58-4.76,54.79-8.19,63.87,8.99,1.73,3.28,2.06,6.52,2.65,12.43.97,9.76-.75,17.98-2.36,25.39-.81,3.71-1.21,5.56-1.85,6.92Z"/>
    <path class="st13" d="M232.79,76.05"/>
    <path class="st13" d="M281.87,52.87"/>
    <path d="M124.54,44.56"/>
    <path class="st13" d="M272.33,29.9"/>
    <path d="M187.27,132.28"/>
    <path class="st11" d="M141.8,55.42c-2.24,1.11-5.9,3.31-8.97,7.36-5.64,7.44-5.22,15.73-5.02,18.04-3.64-3.13-7.29-6.26-10.93-9.39,5.87-7.59,11.74-15.18,17.61-22.77,2.44,2.25,4.87,4.5,7.31,6.76Z"/>
    <path class="st11" d="M55.88,55.09"/>
    <path class="st11" d="M143.96,44.56c.95,2.87,1.91,5.75,2.86,8.62,0,0,25.27-5.78,30.6-4.9l-.74-8.06c-2.03-.65-4.3-1.19-6.8-1.5-11.68-1.44-21.21,3.1-25.92,5.84Z"/>
    <path class="st11" d="M182.81,40.91v6s6.93.07,12.92,2.81c6,2.74-12.92-8.81-12.92-8.81Z"/>
    <path class="st11" d="M283.48,65.41"/>
    <g>
      <rect class="st16" x="192.11" y="171.3" width="17.67" height="10.53"/>
      <g class="st2">
        <rect class="st15" x="187.42" y="168.99" width="13.08" height="8.1"/>
        <rect class="st7" x="200.5" y="171.18" width="11.68" height="1.64"/>
        <rect class="st7" x="198.1" y="168.18" width="11.68" height="1.36"/>
        <rect class="st7" x="200.52" y="173.37" width="11.68" height="1.45"/>
        <rect class="st7" x="200.5" y="175.63" width="11.68" height="1.4"/>
        <circle class="st16" cx="192.71" cy="171.99" r=".38"/>
        <circle class="st16" cx="194.9" cy="172.02" r=".38"/>
        <circle class="st16" cx="194.96" cy="174.27" r=".38"/>
        <circle class="st16" cx="198.26" cy="173.27" r=".38"/>
        <circle class="st16" cx="197.16" cy="172.04" r=".38"/>
        <circle class="st16" cx="196.2" cy="175.29" r=".38"/>
        <circle class="st16" cx="199.67" cy="172.07" r=".38"/>
        <circle class="st16" cx="193.72" cy="173.21" r=".38"/>
        <circle class="st16" cx="196.2" cy="173.28" r=".38"/>
        <circle class="st16" cx="199.64" cy="174.54" r=".38"/>
        <circle class="st16" cx="198.34" cy="175.4" r=".38"/>
        <circle class="st16" cx="192.67" cy="174.41" r=".38"/>
        <circle class="st16" cx="193.82" cy="175.41" r=".38"/>
        <circle class="st16" cx="194.84" cy="176.57" r=".38"/>
        <circle class="st16" cx="192.61" cy="176.57" r=".38"/>
        <circle class="st16" cx="197.13" cy="176.57" r=".38"/>
        <circle class="st16" cx="197.28" cy="174.27" r=".38"/>
        <circle class="st16" cx="199.71" cy="176.57" r=".38"/>
        <rect class="st7" x="192.11" y="177.88" width="18.99" height="1.4"/>
        <rect class="st7" x="191.94" y="179.97" width="18.99" height="1.4"/>
        <rect class="st7" x="191.04" y="180.56" width="18.99" height="1.4"/>
      </g>
    </g>
    <g>
      <rect x="170.21" y="171.48" width="15.42" height="10.17"/>
      <g class="st3">
        <rect class="st33" x="165.79" y="164.44" width="9.03" height="21.27"/>
        <rect class="st31" x="180.75" y="163.43" width="9.62" height="21.27"/>
        <rect class="st14" x="174.77" y="161.63" width="6.11" height="21.27"/>
      </g>
    </g>
    <path class="st26" d="M89.91,218.32l-12.37,21.43c-2.09,3.63-6.73,4.87-10.35,2.77l-9.71-5.6c-3.63-2.09-4.87-6.73-2.77-10.35l12.37-21.43c.51-.71,1.96-2.55,4.6-3.53,2.81-1.05,5.25-.49,6.08-.26,3.49,1.59,6.97,3.18,10.46,4.76.72.99,2.15,3.24,2.45,6.46.24,2.59-.35,4.64-.76,5.75Z"/>
    <path d="M123.98,111.48"/>
    <path class="st11" d="M165.99,365.55c-21.55,17.52-43.09,35.05-64.64,52.57.67-5.2,1.34-10.39,2.01-15.59,21.6-17.85,43.19-35.69,64.79-53.54-.72,5.52-1.45,11.04-2.17,16.56Z"/>
    <polygon class="st11" points="168.16 348.99 226.81 388.4 228.37 402.09 165.99 365.55 168.16 348.99"/>
    <path class="st31" d="M222.48,350.49"/>
    <path class="st11" d="M117.54,349.92c34.77-1.58,69.54-3.16,104.31-4.74.55,3.23,1.11,6.45,1.66,9.68-38.73,1.78-77.46,3.57-116.19,5.35,1.95-1.19,4.44-3,6.84-5.69,1.44-1.62,2.54-3.21,3.38-4.6Z"/>
    <path class="st31" d="M63.24,372.68"/>
    <path class="st11" d="M106.79,307.95c37.25.43,74.5.86,111.75,1.29.77,8.94,1.53,17.88,2.3,26.83-32.97-.61-65.95-1.22-98.92-1.82-.09-2.97-.68-9.45-4.88-16.13-3.46-5.5-7.79-8.64-10.25-10.17Z"/>
    <rect class="st11" x="120" y="83.15" width="9.07" height="60.42" transform="translate(-39.99 77.46) rotate(-30)"/>
    <rect class="st11" x="148.57" y="113.12" width="7.89" height="37.15" transform="translate(68.67 314.93) rotate(-106.22)"/>
    <rect x="157.99" y="118.31" width="26.92" height="15.76" rx="7.88" ry="7.88" transform="translate(-28.42 52.92) rotate(-16.22)"/>
  </g>
  <path class="st0" d="M751.26,175.29c-9.77,25.2-49.9,1.99-60.12-1.12-10.22-3.11-35.35-15.21-45.36-22.15-10.01-6.94-17.02-5.03-18.75-16.35s19.6-21.36,72.36,1.71c52.76,23.07,57.94,22.24,51.87,37.9Z"/>
  <path class="st0" d="M766.42,236.74c-32.73-37.1-45.04-48.43-43.96-56.89.29-2.27,4.04-4.14,6.95-9.94,4.46-8.89,2.79-14.15,4.93-15.75,3.44-2.58,16.59,4.53,59.66,47.84"/>
  <circle class="st30" cx="777.89" cy="217.05" r="29.32"/>
  <rect class="st29" x="616.55" y="144.18" width="7.8" height="5.28" transform="translate(-16.78 125.43) rotate(-11.39)"/>
  <path class="st28" d="M535.94,407.83l-53.6,25.92,4.13,66.52,34.32,24.21,25.31-24.29c-3.05-6.74-6.11-13.47-9.16-20.21,8.15-15.21,16.3-30.42,24.44-45.63l-25.45-26.52Z"/>
  <polygon class="st28" points="715.35 420.64 708.44 465.66 737.15 500.57 770.46 502.57 777.6 473.16 757.72 455.78 752.28 426.31 715.35 420.64"/>
  <path class="st21" d="M490.19,421.43c30.06-20.98,60.11-41.95,90.17-62.93,10.33,15.62,20.66,31.23,30.99,46.85-21.5,19.81-43.01,39.61-64.51,59.42l-3.59,19.81-53.07-63.15Z"/>
  <path class="st21" d="M700.33,460.5c-2.73-43.36-5.45-86.73-8.18-130.09,17.27,2.65,34.54,5.3,51.8,7.95l31.89,125.07-75.52-2.92Z"/>
  <rect class="st11" x="500.73" y="135.86" width="129" height="157.12" rx="64.5" ry="64.5" transform="translate(-31.21 115.85) rotate(-11.39)"/>
  <path class="st11" d="M743.02,82.09"/>
  <g>
    <g>
      <polygon class="st32" points="538.73 133.75 537.33 147.08 623.9 129.64 622.49 113.28 538.73 133.75"/>
      <g class="st12">
        <rect class="st32" x="541.55" y="104.91" width="10.77" height="56.62" transform="translate(-15.54 110.64) rotate(-11.39)"/>
        <rect class="st32" x="574.53" y="101.87" width="10.77" height="56.62" transform="translate(-14.29 117.09) rotate(-11.39)"/>
        <rect class="st32" x="574.53" y="101.87" width="10.77" height="56.62" transform="translate(-14.29 117.09) rotate(-11.39)"/>
        <rect class="st32" x="608.61" y="95" width="10.77" height="56.62" transform="translate(-12.26 123.69) rotate(-11.39)"/>
        <rect class="st32" x="592.03" y="96.81" width="10.77" height="56.62" transform="translate(-12.94 120.45) rotate(-11.39)"/>
        <rect class="st32" x="557.94" y="105.21" width="10.77" height="56.62" transform="translate(-15.28 113.88) rotate(-11.39)"/>
      </g>
    </g>
    <path class="st32" d="M670.83,282.79c-29.26,13.7-58.51,27.4-87.77,41.1-12.07-59.91-24.14-119.81-36.21-179.72l92.3-18.6,31.67,157.21Z"/>
    <path class="st32" d="M583.05,323.03c-10.62-3.69-21.24-7.37-31.87-11.06-11.52-54.55-23.05-109.1-34.57-163.64,10.13-1.39,20.27-2.79,30.4-4.18,12.01,59.63,24.03,119.26,36.04,178.89Z"/>
  </g>
  <rect class="st11" x="569.54" y="178.45" width="76.11" height="91.18" transform="translate(-32.28 124.41) rotate(-11.39)"/>
  <path class="st32" d="M410.97,129.35c-8.56,27.28,39.66,33.94,50.09,37.96s39.03,10.22,51.81,10.93,17.28,6.83,26.15-1.46c8.87-8.29-2.04-30.44-60.53-45.39-58.5-14.95-62.21-18.99-67.53-2.03Z"/>
  <path class="st32" d="M472.81,51.13c-19.48,10.84-53.19,33.32-59.66,65.65-1.04,5.17-4.11,20.56,2.79,25.23,3.59,2.43,9.55,1.74,20.78-4.38,12.05-6.56,31.73-20.22,51.43-49.92"/>
  <ellipse class="st18" cx="492.55" cy="58.57" rx="30.64" ry="31.1" transform="translate(263.98 498.78) rotate(-69.34)"/>
  <g>
    <path class="st1" d="M632.2,89.39c-.05-.05-.1-.1-.15-.15-.04-.03-.07-.06-.11-.1-.06-.05-.13-.1-.18-.16-.02-.02-.04-.04-.06-.06-.02-.02-.03-.04-.05-.06-.14-.13-.26-.28-.35-.46,0-.02-.01-.04-.02-.06-1.52-1.44-2.11-3.72-3.18-5.51-.22-.37-.27-.73-.21-1.05l-20.72-48.11s-8.99-17.83-32.01-21.71c-23.02-3.87-59.79,12.7-67.56,27.69-7.77,14.99-8.57,66.22,10.11,73.59,0,0,1.21,4.34-1.06,6.43,0,0,7.65,12.86,9.33,12.85,1.68-.01,109.93-8.07,113.27-33.3,0,0-5.02-5.13-7.06-9.84Z"/>
    <g>
      <path class="st1" d="M517.59,115.94c-.89.97-2.05,2.54-2.33,4.62,0,0-2.82,9.8,8.14,12.77,4.16,1.13,96.96.22,112.43-31.93,0,0-.81-4.85-6.37-8.59,0,0-2.71-2.35-.67-6.58,2.04-4.23-10.14.84-10.14.84-33.68,9.62-67.37,19.24-101.05,28.87Z"/>
      <g class="st24">
        <path class="st1" d="M695.04,101.47"/>
        <path class="st1" d="M503.94,111.82"/>
        <path class="st1" d="M477.96,98.26c1.7.31,78.64,52.26,224.15,28.52,145.51-23.75-136.27,56.6-138.79,57.1s-93.25-14.28-93.25-14.28l7.89-71.33Z"/>
        <path class="st1" d="M546.71,46.22"/>
      </g>
    </g>
  </g>
  <path class="st29" d="M532.73,39.84"/>
  <path class="st19" d="M626.15,77.81c-2.05,8.43-9.43,14.84-16.48,17.52-2.89,1.1-5.91,1.56-11.95,2.42-4.18.59-7.7.88-9.41.98-11.54.67-25.95,1.51-36.83-7.32-7.38-5.99-10.02-13.91-11.38-18.01-1.67-5.02-4.86-14.43-.72-23.1,2.62-5.49,7.27-9.09,15.09-12.86,17.28-8.33,52.1-18.85,64.39-3.8,2.35,2.87,3.3,5.98,5.05,11.67,2.88,9.38,2.81,17.77,2.7,25.35-.06,3.79-.09,5.69-.44,7.15Z"/>
  <path class="st13" d="M637.11,43.27"/>
  <path class="st13" d="M680.64,10.85"/>
  <path d="M524.78,33.78"/>
  <path class="st13" d="M728.46,21.78"/>
  <path d="M603.6,107.39"/>
  <path class="st11" d="M543.84,41.01c-1.98,1.53-5.13,4.41-7.34,8.99-4.06,8.41-2.01,16.45-1.36,18.68-4.19-2.35-8.38-4.7-12.57-7.05,4.26-8.6,8.51-17.2,12.77-25.8,2.83,1.73,5.67,3.45,8.5,5.18Z"/>
  <path class="st11" d="M473.22,69.06"/>
  <path class="st11" d="M543.81,29.95c1.5,2.63,3.01,5.26,4.51,7.88,0,0,23.63-10.66,29.03-10.85l-2.32-7.75c-2.12-.24-4.45-.32-6.96-.13-11.73.9-20.18,7.22-24.26,10.84Z"/>
  <path class="st11" d="M581.18,18.69l1.19,5.88s6.81-1.3,13.22.2c6.42,1.5-14.41-6.09-14.41-6.09Z"/>
  <path class="st11" d="M684.7,22.83"/>
  <g>
    <rect class="st16" x="616.91" y="142.83" width="17.67" height="10.53" transform="translate(-16.92 126.5) rotate(-11.39)"/>
    <g class="st25">
      <rect class="st15" x="611.67" y="141.97" width="13.08" height="8.1" transform="translate(-16.66 124.97) rotate(-11.39)"/>
      <rect class="st7" x="624.29" y="141.73" width="11.68" height="1.64" transform="translate(-15.74 127.25) rotate(-11.39)"/>
      <rect class="st7" x="621.32" y="139.28" width="11.68" height="1.36" transform="translate(-15.29 126.62) rotate(-11.39)"/>
      <rect class="st7" x="624.72" y="143.88" width="11.68" height="1.45" transform="translate(-16.14 127.38) rotate(-11.39)"/>
      <rect class="st7" x="625.15" y="146.1" width="11.68" height="1.4" transform="translate(-16.56 127.51) rotate(-11.39)"/>
      <circle class="st16" cx="616.77" cy="145.24" r=".38"/>
      <circle class="st16" cx="618.92" cy="144.83" r=".38"/>
      <circle class="st16" cx="619.43" cy="147.03" r=".38"/>
      <circle class="st16" cx="622.46" cy="145.39" r=".38"/>
      <circle class="st16" cx="621.14" cy="144.4" r=".38"/>
      <circle class="st16" cx="620.84" cy="147.78" r=".38"/>
      <circle class="st16" cx="623.61" cy="143.94" r=".38"/>
      <circle class="st16" cx="618" cy="146.23" r=".38"/>
      <circle class="st16" cx="620.45" cy="145.82" r=".38"/>
      <circle class="st16" cx="624.06" cy="146.37" r=".38"/>
      <circle class="st16" cx="622.97" cy="147.47" r=".38"/>
      <circle class="st16" cx="617.21" cy="147.62" r=".38"/>
      <circle class="st16" cx="618.53" cy="148.37" r=".38"/>
      <circle class="st16" cx="619.76" cy="149.3" r=".38"/>
      <circle class="st16" cx="617.58" cy="149.74" r=".38"/>
      <circle class="st16" cx="622" cy="148.85" r=".38"/>
      <circle class="st16" cx="621.7" cy="146.57" r=".38"/>
      <circle class="st16" cx="624.54" cy="148.34" r=".38"/>
      <rect class="st7" x="617.29" y="149.24" width="18.99" height="1.4" transform="translate(-17.27 126.74) rotate(-11.39)"/>
      <rect class="st7" x="617.55" y="151.33" width="18.99" height="1.4" transform="translate(-17.67 126.83) rotate(-11.39)"/>
      <rect class="st7" x="616.77" y="152.08" width="18.99" height="1.4" transform="translate(-17.84 126.69) rotate(-11.39)"/>
    </g>
  </g>
  <g>
    <rect x="595.46" y="147.56" width="15.42" height="10.17" transform="translate(-18.27 122.13) rotate(-11.39)"/>
    <g class="st6">
      <rect class="st33" x="590.9" y="142.06" width="9.03" height="21.27" transform="translate(-18.43 120.6) rotate(-11.39)"/>
      <rect class="st31" x="605.36" y="138.05" width="9.62" height="21.27" transform="translate(-17.35 123.43) rotate(-11.39)"/>
      <rect class="st14" x="599.18" y="137.81" width="6.11" height="21.27" transform="translate(-17.46 121.86) rotate(-11.39)"/>
    </g>
  </g>
  <path class="st26" d="M492.36,152.34l-16.36-18.57c-2.77-3.14-7.56-3.44-10.7-.67l-8.41,7.41c-3.14,2.77-3.44,7.56-.67,10.7l16.36,18.57c.64.6,2.42,2.11,5.21,2.55,2.96.47,5.24-.56,6.01-.95,3.11-2.25,6.21-4.49,9.32-6.74.51-1.11,1.46-3.6,1.13-6.82-.27-2.58-1.26-4.48-1.88-5.49Z"/>
  <path d="M537.44,99.49"/>
  <path class="st31" d="M519.37,364.56"/>
  <rect class="st11" x="533.82" y="71.01" width="9.07" height="60.42" transform="translate(67.55 381.24) rotate(-41.39)"/>
  <rect class="st11" x="565.47" y="95.1" width="7.89" height="37.15" transform="translate(732.58 670.93) rotate(-117.61)"/>
  <rect x="573.43" y="96.65" width="26.92" height="15.76" rx="7.88" ry="7.88" transform="translate(18.39 283.9) rotate(-27.61)"/>
  <polygon class="st32" points="551.18 311.97 549.83 364.56 541.76 392.37 616.11 405.99 608.84 360.22 623.9 334.24 675.09 353.2 698.44 385.41 748.57 340.46 706.22 316.48 670.83 282.79 551.18 311.97"/>
  <path class="st11" d="M690.1,301.13c-46.34,9.76-92.69,19.52-139.03,29.27.02-8.2.04-16.39.06-24.59,39.9-7.68,79.8-15.35,119.7-23.03,6.42,6.12,12.85,12.23,19.27,18.35Z"/>
  <path class="st11" d="M758.19,287.82"/>
  <path class="st11" d="M710.53,318.92c-53.57,11.2-107.13,22.4-160.7,33.59l.95-13.76c49.63-10,99.25-20,148.88-29.99,3.62,3.39,7.25,6.77,10.87,10.16Z"/>
  <path class="st11" d="M623.69,336.35c-27.31,16.43-54.62,32.87-81.93,49.3,1.56-3.55,3.11-7.1,4.67-10.65,23.24-16.43,46.49-32.87,69.73-49.3l7.53,10.65Z"/>
  <path class="st11" d="M634.64,323.64c38.42,12.69,76.85,25.37,115.27,38.06,1.12,4.38,2.23,8.76,3.35,13.14-41.03-12.98-82.06-25.97-123.09-38.95l4.47-12.25Z"/>
  <path class="st11" d="M832.35,306.6"/>
  <path class="st0" d="M1133.18,249.96c-22.85,14.44-41.29-28.09-47.65-36.67-6.36-8.58-19.36-33.26-23.28-44.79-3.91-11.53-10.69-14.17-5.35-24.29,5.34-10.13,28.46-5.5,57.14,44.43,28.68,49.93,33.34,52.35,19.14,61.32Z"/>
  <path class="st0" d="M1108.81,308.37c-4.23-49.29-7.38-65.72-1.48-71.88,1.58-1.65,5.71-.93,11.5-3.86,8.87-4.49,10.67-9.71,13.33-9.73,4.3-.02,10.63,13.51,19.48,73.94"/>
  <circle class="st30" cx="1129.74" cy="299.36" r="29.32"/>
  <rect class="st29" x="1055.22" y="156.08" width="7.8" height="5.28" transform="translate(-11.83 160.1) rotate(-8.6)"/>
  <path class="st28" d="M994.96,457.54l-18.41,56.62,50.86,43.08,41.23-8v-35.08c-6.97-2.46-13.95-4.92-20.92-7.39-5.33-16.41-10.67-32.82-16-49.23h-36.76Z"/>
  <polygon class="st28" points="1092.47 450.46 1092.47 496 1126.14 526.16 1159.37 523.08 1161.97 492.92 1139.68 478.77 1129.83 450.46 1092.47 450.46"/>
  <path class="st21" d="M981.45,306.92l11.35,99.7,3.96,5.23,44.04,1.54,5.54-5.54,7.39-56.93,23.69,54.77,4.62,4.92,32-8.31,3.08-6.77c-4.35-32.06-8.69-64.12-13.04-96.18-39.35-.76-78.7-1.52-118.05-2.29l-3.03,4.3-1.55,5.54Z"/>
  <path class="st21" d="M975.21,492.88c5.68-36.21,11.35-72.42,17.03-108.63,18.42,3.36,36.84,6.72,55.26,10.08-.6,29.23-1.2,58.46-1.79,87.69l11.81,16.3-82.3-5.43Z"/>
  <path class="st21" d="M1089.8,489.24c-7.6-39.44-15.19-78.88-22.79-118.31h42.95l41.37,110.36-61.53,7.96Z"/>
  <path class="st21" d="M1076.7,403.64"/>
  <rect class="st11" x="936.16" y="144.98" width="129" height="157.12" rx="64.5" ry="64.5" transform="translate(-22.17 152.09) rotate(-8.6)"/>
  <path class="st11" d="M1216.79,120.53"/>
  <g>
    <g>
      <polygon class="st32" points="978.13 141.68 976.08 154.92 1063.41 141.72 1062.79 125.32 978.13 141.68"/>
      <g class="st4">
        <rect class="st32" x="980.97" y="113.24" width="10.77" height="56.62" transform="translate(-10.08 149.03) rotate(-8.6)"/>
        <rect class="st32" x="1014.05" y="111.81" width="10.77" height="56.62" transform="translate(-9.49 153.96) rotate(-8.6)"/>
        <rect class="st32" x="1014.05" y="111.81" width="10.77" height="56.62" transform="translate(-9.49 153.96) rotate(-8.6)"/>
        <rect class="st32" x="1048.43" y="106.62" width="10.77" height="56.62" transform="translate(-8.33 159.04) rotate(-8.6)"/>
        <rect class="st32" x="1031.78" y="107.61" width="10.77" height="56.62" transform="translate(-8.66 156.56) rotate(-8.6)"/>
        <rect class="st32" x="997.32" y="114.34" width="10.77" height="56.62" transform="translate(-10.06 151.48) rotate(-8.6)"/>
      </g>
    </g>
    <path class="st32" d="M1102.81,296.98c-29.89,12.26-59.78,24.52-89.67,36.77-9.13-60.42-18.27-120.85-27.4-181.27l93.1-14.07,23.97,158.57Z"/>
    <path class="st32" d="M1013.17,332.89c-10.43-4.2-20.86-8.4-31.29-12.6-8.85-55.05-17.7-110.09-26.55-165.14,10.19-.9,20.38-1.8,30.57-2.7,9.09,60.14,18.18,120.29,27.28,180.43Z"/>
  </g>
  <rect class="st11" x="1004.46" y="189.62" width="76.11" height="91.18" transform="translate(-23.45 158.48) rotate(-8.6)"/>
  <path class="st32" d="M894.69,88.92c-23.88,15.74,9.29,51.36,14.84,61.08,5.55,9.71,23.8,32.59,33.26,41.21,9.46,8.62,9.08,16.22,21.2,15.39,12.11-.83,17.66-24.88-18.24-73.43-35.9-48.54-36.22-54.02-51.06-44.24Z"/>
  <path class="st32" d="M910.24,36.06c-21.41,54.44-25.08,68.15-23.55,68.81.93.4,2.4-3.24,5.89-3.86,10.69-1.91,19.63,28.46,28.44,28.16,6.14-.21,13.34-15.31,20.48-68.69"/>
  <ellipse class="st18" cx="931.1" cy="32.91" rx="31.1" ry="30.64" transform="translate(5.54 139.55) rotate(-8.6)"/>
  <g>
    <path class="st1" d="M1073.65,101.93c-.05-.05-.1-.11-.14-.16-.04-.03-.07-.07-.11-.1-.05-.05-.12-.11-.18-.17-.02-.02-.04-.04-.05-.06-.01-.02-.03-.04-.05-.06-.13-.14-.24-.29-.32-.47,0-.02-.01-.04-.02-.06-1.45-1.51-1.93-3.82-2.9-5.66-.2-.38-.24-.74-.16-1.06l-18.35-49.06s-8.11-18.25-30.91-23.24c-22.81-4.99-60.34,9.77-68.83,24.36-8.49,14.59-11.78,65.72,6.51,74,0,0,1,4.39-1.38,6.37,0,0,7.01,13.22,8.69,13.29,1.68.07,110.19-2.7,114.76-27.74,0,0-4.76-5.37-6.57-10.18Z"/>
    <g>
      <path class="st1" d="M957.88,122.86c-.94.93-2.17,2.44-2.55,4.5,0,0-3.29,9.65,7.51,13.15,4.1,1.33,96.84,4.94,113.85-26.41,0,0-.58-4.89-5.94-8.89,0,0-2.59-2.48-.35-6.6,2.24-4.13-10.17.35-10.17.35-34.11,7.97-68.23,15.94-102.34,23.91Z"/>
      <g class="st23">
        <path class="st1" d="M1135.83,117.06"/>
        <path class="st1" d="M944.45,118.07"/>
        <path class="st1" d="M919.16,103.27c1.68.39,76,56.04,222.49,39.41,146.49-16.63-138.87,49.89-141.41,50.27s-92.44-18.81-92.44-18.81l11.36-70.87Z"/>
        <path class="st1" d="M990.37,54.65"/>
      </g>
    </g>
  </g>
  <path class="st29" d="M976.72,47.59"/>
  <path class="st19" d="M1068.17,90.07c-2.45,8.32-10.14,14.36-17.31,16.69-2.94.96-5.98,1.27-12.06,1.84-4.2.39-7.73.5-9.45.52-11.56.11-25.99.25-36.43-9.1-7.08-6.34-9.33-14.38-10.49-18.54-1.43-5.1-4.15-14.65.4-23.11,2.89-5.36,7.71-8.73,15.7-12.11,17.66-7.48,52.95-16.29,64.5-.66,2.21,2.99,3.01,6.13,4.47,11.9,2.42,9.51,1.94,17.89,1.46,25.45-.24,3.79-.36,5.68-.79,7.12Z"/>
  <path class="st13" d="M1080.8,56.1"/>
  <path class="st13" d="M1125.87,25.85"/>
  <path d="M969.07,41.15"/>
  <path class="st13" d="M1136.95,0"/>
  <path d="M1044.21,118.51"/>
  <path class="st11" d="M987.76,49.3c-2.05,1.43-5.34,4.15-7.77,8.62-4.46,8.2-2.81,16.33-2.27,18.59-4.07-2.55-8.14-5.1-12.21-7.65,4.67-8.38,9.34-16.77,14.01-25.15,2.75,1.86,5.49,3.72,8.24,5.59Z"/>
  <path class="st11" d="M902.75,61.83"/>
  <path class="st11" d="M988.27,38.25c1.37,2.7,2.75,5.4,4.12,8.09,0,0,24.12-9.5,29.53-9.42l-1.94-7.86c-2.1-.34-4.43-.54-6.95-.47-11.76.32-20.51,6.23-24.76,9.65Z"/>
  <path class="st11" d="M1026.14,28.83l.9,5.93s6.86-.96,13.2.85c6.34,1.81-14.1-6.78-14.1-6.78Z"/>
  <path class="st11" d="M1129.34,38"/>
  <g>
    <rect class="st16" x="1055.51" y="154.98" width="17.67" height="10.53" transform="translate(-12 160.89) rotate(-8.6)"/>
    <g class="st9">
      <rect class="st15" x="1050.38" y="153.75" width="13.08" height="8.1" transform="translate(-11.71 159.76) rotate(-8.6)"/>
      <rect class="st7" x="1063.16" y="154.11" width="11.68" height="1.64" transform="translate(-11.15 161.53) rotate(-8.6)"/>
      <rect class="st7" x="1060.31" y="151.51" width="11.68" height="1.36" transform="translate(-10.77 161.07) rotate(-8.6)"/>
      <rect class="st7" x="1063.49" y="156.27" width="11.68" height="1.45" transform="translate(-11.45 161.6) rotate(-8.6)"/>
      <rect class="st7" x="1063.8" y="158.51" width="11.68" height="1.4" transform="translate(-11.78 161.68) rotate(-8.6)"/>
      <circle class="st16" cx="1055.52" cy="156.96" r=".38"/>
      <circle class="st16" cx="1057.69" cy="156.66" r=".38"/>
      <circle class="st16" cx="1058.09" cy="158.88" r=".38"/>
      <circle class="st16" cx="1061.19" cy="157.39" r=".38"/>
      <circle class="st16" cx="1059.93" cy="156.34" r=".38"/>
      <circle class="st16" cx="1059.47" cy="159.69" r=".38"/>
      <circle class="st16" cx="1062.42" cy="156" r=".38"/>
      <circle class="st16" cx="1056.7" cy="158.01" r=".38"/>
      <circle class="st16" cx="1059.17" cy="157.71" r=".38"/>
      <circle class="st16" cx="1062.75" cy="158.44" r=".38"/>
      <circle class="st16" cx="1061.6" cy="159.49" r=".38"/>
      <circle class="st16" cx="1055.84" cy="159.36" r=".38"/>
      <circle class="st16" cx="1057.13" cy="160.17" r=".38"/>
      <circle class="st16" cx="1058.31" cy="161.16" r=".38"/>
      <circle class="st16" cx="1056.11" cy="161.5" r=".38"/>
      <circle class="st16" cx="1060.57" cy="160.82" r=".38"/>
      <circle class="st16" cx="1060.38" cy="158.53" r=".38"/>
      <circle class="st16" cx="1063.13" cy="160.43" r=".38"/>
      <rect class="st7" x="1055.8" y="161.44" width="18.99" height="1.4" transform="translate(-12.27 161.06) rotate(-8.6)"/>
      <rect class="st7" x="1055.95" y="163.54" width="18.99" height="1.4" transform="translate(-12.58 161.11) rotate(-8.6)"/>
      <rect class="st7" x="1055.14" y="164.25" width="18.99" height="1.4" transform="translate(-12.7 160.99) rotate(-8.6)"/>
    </g>
  </g>
  <g>
    <rect x="1033.87" y="158.61" width="15.42" height="10.17" transform="translate(-12.77 157.53) rotate(-8.6)"/>
    <g class="st10">
      <rect class="st33" x="1029.31" y="152.73" width="9.03" height="21.27" transform="translate(-12.8 156.37) rotate(-8.6)"/>
      <rect class="st31" x="1043.95" y="149.44" width="9.62" height="21.27" transform="translate(-12.15 158.56) rotate(-8.6)"/>
      <rect class="st14" x="1037.79" y="148.82" width="6.11" height="21.27" transform="translate(-12.14 157.37) rotate(-8.6)"/>
    </g>
  </g>
  <path class="st26" d="M947.52,147.67l-15.44-19.34c-2.61-3.27-7.38-3.81-10.65-1.2l-8.76,6.99c-3.27,2.61-3.81,7.38-1.2,10.65l15.44,19.34c.61.63,2.32,2.23,5.08,2.8,2.94.61,5.26-.3,6.05-.65,3.21-2.09,6.42-4.18,9.63-6.27.56-1.08,1.64-3.52,1.46-6.75-.15-2.59-1.04-4.54-1.61-5.57Z"/>
  <path d="M978.51,107.4"/>
  <path class="st11" d="M1053.83,351.07c-21.55,17.52-43.09,35.05-64.64,52.57.67-5.2,1.34-10.39,2.01-15.59,21.6-17.85,43.19-35.69,64.79-53.54-.72,5.52-1.45,11.04-2.17,16.56Z"/>
  <polygon class="st11" points="1056 334.51 1114.65 373.92 1116.21 387.6 1053.83 351.07 1056 334.51"/>
  <path class="st31" d="M1110.32,336.01"/>
  <path class="st11" d="M984.25,336.01c41.82-1.77,83.63-3.53,125.45-5.3.55,3.23,1.11,6.45,1.66,9.68-41.87,1.78-83.75,3.57-125.62,5.35,0-1.65-.14-3.57-.51-5.69-.26-1.5-.61-2.85-.97-4.04Z"/>
  <path class="st31" d="M951.08,358.2"/>
  <path class="st11" d="M977.57,293.46c41.75,1.17,83.49,2.34,125.24,3.51,0,.02,1.46,6.12,1.46,6.14.05.21,4.35,18.26,4.4,18.47-42.41-1.33-84.82-2.65-127.23-3.98-.73-4.51-1.45-9.02-2.18-13.53-.57-3.54-1.14-7.07-1.71-10.61Z"/>
  <rect class="st11" x="974.81" y="78.96" width="9.07" height="60.42" transform="translate(145.83 634.8) rotate(-38.6)"/>
  <rect class="st11" x="1005.81" y="104.55" width="7.89" height="37.15" transform="translate(1321.816 1091.3122) rotate(-114.8168)"/>
  <rect x="1014.2" y="106.97" width="26.92" height="15.76" rx="7.88" ry="7.88" transform="translate(46.7 441.93) rotate(-24.82)"/>
  <path class="st0" d="M1660.61,166.63c-5.49,26.47-48.89,10.19-59.48,8.8s-37.37-9.17-48.39-14.37c-11.01-5.19-17.62-2.15-21.19-13.03s15.81-24.3,71.65-10.24c55.84,14.06,60.81,12.38,57.4,28.83Z"/>
  <path class="st0" d="M1685.69,224.75c-38.4-31.2-52.4-40.35-52.74-48.87-.09-2.29,3.3-4.75,5.21-10.95,2.93-9.51.42-14.42,2.26-16.34,2.97-3.11,17.11,1.74,66.72,37.35"/>
  <circle class="st30" cx="1693.75" cy="203.44" r="29.32"/>
  <rect class="st29" x="1522.99" y="157.47" width="7.8" height="5.28" transform="translate(43.18 554.61) rotate(-20.88)"/>
  <rect class="st11" x="1419.06" y="157.32" width="129" height="157.12" rx="64.5" ry="64.5" transform="translate(13.33 544.14) rotate(-20.88)"/>
  <path class="st11" d="M1637.12,76.06"/>
  <g>
    <g>
      <polygon class="st32" points="1444.13 160.69 1444.95 174.06 1527.47 142.59 1523.38 126.7 1444.13 160.69"/>
      <g class="st17">
        <rect class="st32" x="1446.76" y="130.5" width="10.77" height="56.62" transform="translate(38.74 527.88) rotate(-20.88)"/>
        <rect class="st32" x="1478.78" y="122.07" width="10.77" height="56.62" transform="translate(43.84 538.74) rotate(-20.88)"/>
        <rect class="st32" x="1478.78" y="122.07" width="10.77" height="56.62" transform="translate(43.84 538.74) rotate(-20.88)"/>
        <rect class="st32" x="1511.27" y="109.68" width="10.77" height="56.62" transform="translate(50.39 549.51) rotate(-20.88)"/>
        <rect class="st32" x="1495.21" y="114.19" width="10.77" height="56.62" transform="translate(47.73 544.08) rotate(-20.88)"/>
        <rect class="st32" x="1462.97" y="128.1" width="10.77" height="56.62" transform="translate(40.65 533.5) rotate(-20.88)"/>
      </g>
    </g>
    <path class="st32" d="M1598.99,285.92c-26.6,18.33-53.2,36.67-79.8,55-21.78-57.1-43.55-114.2-65.33-171.29l87.98-33.55,57.15,149.85Z"/>
    <path class="st32" d="M1519.04,340.07c-11.08-1.89-22.17-3.77-33.25-5.66-20.36-51.9-40.71-103.81-61.07-155.71,9.76-3.04,19.53-6.09,29.29-9.13,21.68,56.83,43.35,113.67,65.03,170.5Z"/>
  </g>
  <rect class="st11" x="1488.89" y="192.8" width="76.11" height="91.18" transform="translate(15.29 559.76) rotate(-20.88)"/>
  <path class="st32" d="M1317.4,177.4c-3.95,28.32,44.71,26.94,55.67,29.19,10.96,2.25,40.18,3.65,52.91,2.24s18.17,3.89,25.55-5.75c7.38-9.64-7.03-29.69-67.18-34.8-60.16-5.1-64.48-8.48-66.94,9.12Z"/>
  <path class="st32" d="M1365.5,90.05c-17.43,13.91-46.97,41.63-48.03,74.58-.17,5.27-.67,20.95,6.91,24.42,3.94,1.81,9.71.14,19.78-7.74,10.8-8.45,27.96-25.17,42.5-57.71"/>
  <ellipse class="st18" cx="1386.2" cy="94.14" rx="30.64" ry="31.1" transform="translate(1025.2371 1435.8251) rotate(-78.8272)"/>
  <g>
    <path class="st1" d="M1529.02,101.53c-.06-.04-.12-.08-.17-.13-.04-.03-.08-.05-.13-.08-.06-.04-.14-.08-.21-.13-.02-.02-.04-.03-.06-.05-.02-.02-.04-.03-.06-.05-.16-.11-.3-.24-.42-.39-.01-.02-.02-.04-.03-.06-1.73-1.17-2.7-3.32-4.04-4.92-.28-.33-.39-.67-.38-1l-28.37-44.03s-11.8-16.11-35.15-16.13c-23.35-.03-56.88,22.38-62.07,38.44-5.19,16.06,2.46,66.73,22.1,70.92,0,0,1.91,4.08.01,6.52,0,0,9.66,11.43,11.32,11.14,1.66-.29,107.1-26.07,106.24-51.51,0,0-5.8-4.23-8.58-8.55Z"/>
    <g>
      <path class="st1" d="M1420.35,146.6c-.72,1.11-1.6,2.85-1.54,4.94,0,0-1.16,10.13,10.13,11.25,4.29.43,95.67-15.77,105.63-50.02,0,0-1.6-4.65-7.7-7.42,0,0-3.06-1.87-1.74-6.38,1.31-4.51-9.87,2.5-9.87,2.5-31.64,15.04-63.28,30.08-94.91,45.12Z"/>
      <g class="st20">
        <path class="st1" d="M1592.99,103.09"/>
        <path class="st1" d="M1406.21,144.78"/>
        <path class="st1" d="M1378.35,135.69c1.73.03,86.17,38.59,225.78-8.81,139.61-47.4-125.08,78.28-127.48,79.19s-94.33,1.28-94.33,1.28l-3.97-71.66Z"/>
        <path class="st1" d="M1437.59,73.04"/>
      </g>
    </g>
  </g>
  <path class="st29" d="M1422.74,69.05"/>
  <path class="st19" d="M1521.14,91.1c-.63,8.65-6.86,16.19-13.37,19.99-2.67,1.56-5.57,2.52-11.39,4.36-4.02,1.27-7.45,2.14-9.12,2.52-11.27,2.56-25.35,5.77-37.53-1.15-8.27-4.69-12.17-12.07-14.19-15.88-2.48-4.68-7.18-13.43-4.52-22.67,1.68-5.85,5.68-10.17,12.76-15.17,15.67-11.07,48.28-27.18,62.88-14.36,2.79,2.45,4.24,5.35,6.9,10.68,4.39,8.77,5.7,17.06,6.84,24.56.57,3.75.85,5.63.74,7.13Z"/>
  <path class="st13" d="M1526.26,55.23"/>
  <path d="M1413.9,64.38"/>
  <path class="st13" d="M1612.82,18.98"/>
  <path d="M1503.77,123.99"/>
  <path class="st11" d="M1433.9,68.37c-1.7,1.84-4.33,5.19-5.76,10.08-2.62,8.97.73,16.55,1.74,18.65-4.52-1.63-9.04-3.25-13.56-4.88,2.78-9.18,5.56-18.37,8.34-27.55,3.08,1.24,6.16,2.47,9.24,3.71Z"/>
  <path class="st11" d="M1368.86,107.67"/>
  <path class="st11" d="M1432.05,57.46c1.92,2.34,3.83,4.69,5.75,7.03,0,0,21.55-14.41,26.85-15.48l-3.57-7.26c-2.13.11-4.45.42-6.89,1.02-11.42,2.82-18.71,10.45-22.14,14.69Z"/>
  <path class="st11" d="M1467.04,40.21l2.14,5.61s6.5-2.4,13.08-1.98c6.58.42-15.22-3.63-15.22-3.63Z"/>
  <path class="st11" d="M1569.84,27.22"/>
  <g>
    <rect class="st16" x="1523.49" y="155.23" width="17.67" height="10.53" transform="translate(43.4 556.57) rotate(-20.88)"/>
    <g class="st27">
      <rect class="st15" x="1518.01" y="155.64" width="13.08" height="8.1" transform="translate(43.17 553.74) rotate(-20.88)"/>
      <rect class="st7" x="1529.9" y="153.49" width="11.68" height="1.64" transform="translate(45.83 557.38) rotate(-20.88)"/>
      <rect class="st7" x="1526.54" y="151.56" width="11.68" height="1.36" transform="translate(46.34 556.04) rotate(-20.88)"/>
      <rect class="st7" x="1530.66" y="155.53" width="11.68" height="1.45" transform="translate(45.18 557.78) rotate(-20.88)"/>
      <rect class="st7" x="1531.44" y="157.66" width="11.68" height="1.4" transform="translate(44.49 558.19) rotate(-20.88)"/>
      <circle class="st16" cx="1523.01" cy="159.16" r=".38"/>
      <circle class="st16" cx="1525.06" cy="158.4" r=".38"/>
      <circle class="st16" cx="1525.92" cy="160.49" r=".38"/>
      <circle class="st16" cx="1528.64" cy="158.37" r=".38"/>
      <circle class="st16" cx="1527.18" cy="157.61" r=".38"/>
      <circle class="st16" cx="1527.44" cy="160.99" r=".38"/>
      <circle class="st16" cx="1529.54" cy="156.75" r=".38"/>
      <circle class="st16" cx="1524.38" cy="159.93" r=".38"/>
      <circle class="st16" cx="1526.73" cy="159.12" r=".38"/>
      <circle class="st16" cx="1530.38" cy="159.07" r=".38"/>
      <circle class="st16" cx="1529.48" cy="160.34" r=".38"/>
      <circle class="st16" cx="1523.83" cy="161.43" r=".38"/>
      <circle class="st16" cx="1525.26" cy="161.96" r=".38"/>
      <circle class="st16" cx="1526.63" cy="162.67" r=".38"/>
      <circle class="st16" cx="1524.54" cy="163.46" r=".38"/>
      <circle class="st16" cx="1528.76" cy="161.86" r=".38"/>
      <circle class="st16" cx="1528.09" cy="159.66" r=".38"/>
      <circle class="st16" cx="1531.18" cy="160.94" r=".38"/>
      <rect class="st7" x="1524.16" y="161.44" width="18.99" height="1.4" transform="translate(42.9 557.15) rotate(-20.88)"/>
      <rect class="st7" x="1524.76" y="163.46" width="18.99" height="1.4" transform="translate(42.22 557.49) rotate(-20.88)"/>
      <rect class="st7" x="1524.12" y="164.33" width="18.99" height="1.4" transform="translate(41.87 557.32) rotate(-20.88)"/>
    </g>
  </g>
  <g>
    <rect x="1503.1" y="163.62" width="15.42" height="10.17" transform="translate(39.06 549.44) rotate(-20.88)"/>
    <g class="st5">
      <rect class="st33" x="1498.66" y="159.39" width="9.03" height="21.27" transform="translate(38.09 546.8) rotate(-20.88)"/>
      <rect class="st31" x="1512.26" y="153.01" width="9.62" height="21.27" transform="translate(41.27 551.34) rotate(-20.88)"/>
      <rect class="st14" x="1506.14" y="154.08" width="6.11" height="21.27" transform="translate(40.38 548.6) rotate(-20.88)"/>
    </g>
  </g>
  <path class="st26" d="M1401.46,186.66l-19.2-15.62c-3.25-2.64-8.02-2.15-10.66,1.1l-7.07,8.69c-2.64,3.25-2.15,8.02,1.1,10.66l19.2,15.62c.73.49,2.74,1.68,5.56,1.66,3-.02,5.08-1.41,5.77-1.92,2.69-2.73,5.39-5.45,8.08-8.18.32-1.18.85-3.79-.01-6.91-.69-2.5-1.98-4.21-2.76-5.1Z"/>
  <path d="M1437.22,127.11"/>
  <rect class="st11" x="1433.88" y="98.45" width="9.07" height="60.42" transform="translate(430.9544 1163.3654) rotate(-50.8757)"/>
  <rect class="st11" x="1467.15" y="117.25" width="7.89" height="37.15" transform="translate(2250.0407 1391.1381) rotate(-127.0959)"/>
  <rect x="1473.36" y="116.05" width="26.92" height="15.76" rx="7.88" ry="7.88" transform="translate(226.14 921.86) rotate(-37.1)"/>
  <path class="st21" d="M1482.79,332.5c32.92,11.25,65.84,22.5,98.76,33.74,6.51,21.23,13.01,42.46,19.52,63.69,20.12-6.46,40.24-12.92,60.36-19.39-16.2-23.21-32.41-46.42-48.61-69.63-16.22-7.45-32.43-14.9-48.65-22.35-2.14-2.74-4.28-5.48-6.43-8.22-24.99,7.38-49.97,14.76-74.96,22.14Z"/>
  <path class="st21" d="M1597.15,285.69c-4.4,22.51-8.8,45.03-13.2,67.54l-36.97,95.64c-22.7-.65-45.41-1.31-68.11-1.96,17.5-32.65,34.99-65.3,52.49-97.96l-9.17-41.12,74.96-22.14Z"/>
  <path class="st21" d="M1547.01,373.18c-6-1.01-12-2.02-18-3.04"/>
  <path class="st11" d="M1551.39,310.03c-12.64,10.76-25.28,21.51-37.92,32.27-3.28-.88-6.56-1.75-9.84-2.63,11.35-10.35,22.69-20.7,34.04-31.06l13.72,1.42Z"/>
  <path class="st11" d="M1548.86,304.6c14.35,2.27,28.7,4.54,43.05,6.81-.53,3.08-1.05,6.16-1.58,9.24-15.52-2.86-31.04-5.71-46.55-8.57,1.69-2.49,3.39-4.99,5.08-7.48Z"/>
  <path class="st11" d="M1482.79,326.77c38.43-14.4,76.87-28.81,115.3-43.21-.57,3.24-1.13,6.47-1.7,9.71-18.41,7.32-36.81,14.63-55.22,21.95-17.01,6.76-34.01,13.52-51.02,20.28-.77-.1-2.97-.48-4.86-2.32-2.59-2.53-2.53-5.84-2.51-6.41Z"/>
  <path class="st11" d="M1476.61,310.09c38.43-14.4,76.87-28.81,115.3-43.21,1.64,4.46,3.27,8.91,4.91,13.37-20.02,7.32-40.05,14.6-60.11,21.84-18.58,6.71-37.16,13.38-55.76,20.03-.54-1.8-1.15-3.68-1.84-5.62-.81-2.27-1.66-4.41-2.51-6.41Z"/>
</svg>