<?xml version="1.0" encoding="UTF-8"?>
<svg id="Layer_1" xmlns="http://www.w3.org/2000/svg" version="1.1" xmlns:xlink="http://www.w3.org/1999/xlink" viewBox="0 0 1102.7 550.51">
  <!-- Generator: Adobe Illustrator 30.6.0, SVG Export Plug-In . SVG Version: 2.1.4 Build 109)  -->
  <defs>
    <style>
      .st0 {
        fill: #9d968a;
      }

      .st1 {
        fill: #9f988b;
      }

      .st2 {
        clip-path: url(#clippath-6);
      }

      .st3 {
        clip-path: url(#clippath-7);
      }

      .st4 {
        clip-path: url(#clippath-15);
      }

      .st5 {
        fill: #db1616;
      }

      .st6 {
        clip-path: url(#clippath-4);
      }

      .st7 {
        fill: #5e5a5a;
      }

      .st8 {
        clip-path: url(#clippath-9);
      }

      .st9 {
        fill: #0086bf;
      }

      .st10 {
        fill: #ffa400;
      }

      .st11 {
        fill: #3921e8;
      }

      .st12 {
        fill: #fff;
      }

      .st13 {
        fill: #222424;
      }

      .st14 {
        fill: #7fceff;
      }

      .st15 {
        fill: #9d9689;
      }

      .st16 {
        clip-path: url(#clippath-1);
      }

      .st17 {
        clip-path: url(#clippath-12);
      }

      .st18 {
        clip-path: url(#clippath-14);
      }

      .st19 {
        fill: #233741;
      }

      .st20 {
        fill: #222526;
      }

      .st21 {
        fill: #999696;
      }

      .st22 {
        fill: #222425;
      }

      .st23 {
        fill: #000abf;
      }

      .st24 {
        fill: #9f978a;
      }

      .st25 {
        fill: #b70000;
      }
    </style>
    <clipPath id="clippath-1">
      <polygon class="st24" points="128.72 166.61 127.55 179.95 213.82 161.08 212.14 144.75 128.72 166.61"/>
    </clipPath>
    <clipPath id="clippath-4">
      <path class="st1" d="M107.29,149.14c-.88.99-2.01,2.58-2.25,4.66,0,0-2.65,9.84,8.35,12.63,4.17,1.06,96.96-1.39,111.88-33.78,0,0-.89-4.84-6.51-8.49,0,0-2.75-2.3-.78-6.57,1.97-4.26-10.13,1.01-10.13,1.01-33.52,10.18-67.04,20.36-100.56,30.53Z"/>
    </clipPath>
    <clipPath id="clippath-6">
      <rect class="st12" x="207.13" y="174.24" width="17.67" height="10.53" transform="translate(-33.37 50.29) rotate(-12.34)"/>
    </clipPath>
    <clipPath id="clippath-7">
      <rect x="185.76" y="179.34" width="15.42" height="10.17" transform="translate(-34.94 45.6) rotate(-12.34)"/>
    </clipPath>
    <clipPath id="clippath-9">
      <polygon class="st24" points="816.95 115.42 812.95 128.2 901.26 128.2 903.11 111.9 816.95 115.42"/>
    </clipPath>
    <clipPath id="clippath-12">
      <path class="st1" d="M799.74,93.78c-1.07.78-2.51,2.09-3.2,4.07,0,0-4.69,9.05,5.46,14.12,3.85,1.93,95.01,19.36,116.52-9.1,0,0,.16-4.92-4.55-9.68,0,0-2.19-2.84.64-6.58,2.84-3.74-10.11-1.18-10.11-1.18-34.92,2.78-69.84,5.56-104.76,8.34Z"/>
    </clipPath>
    <clipPath id="clippath-14">
      <rect class="st12" x="890.58" y="141.4" width="17.67" height="10.53"/>
    </clipPath>
    <clipPath id="clippath-15">
      <rect x="868.68" y="141.58" width="15.42" height="10.17"/>
    </clipPath>
  </defs>
  <path class="st20" d="M153.78,429.62l-33.44,41.79,29.12,52.36,37.22,6.35,11.12-29.51c-5.09-4.28-10.17-8.57-15.26-12.85.72-15.5,1.44-30.99,2.15-46.49l-30.92-11.66Z"/>
  <path class="st20" d="M287.54,430.63l5.82,48.79,53.02,14.65,28.11-20.27-12.15-26.28c-6.08.57-12.15,1.14-18.23,1.72-9.68-10.45-19.36-20.89-29.04-31.34l-27.53,12.73Z"/>
  <path class="st0" d="M341.91,204.62c-9.35,25.36-49.86,2.82-60.13-.13-10.27-2.94-35.6-14.62-45.72-21.39s-17.1-4.75-19.02-16.03,19.24-21.68,72.38.51c53.13,22.19,58.3,21.28,52.49,37.04Z"/>
  <path class="st0" d="M358.09,265.82c-33.34-36.55-45.83-47.68-44.9-56.16.25-2.28,3.97-4.21,6.78-10.06,4.31-8.96,2.56-14.2,4.67-15.83,3.4-2.63,16.66,4.26,60.44,46.84"/>
  <circle class="st22" cx="369.22" cy="245.94" r="29.32"/>
  <rect class="st21" x="206.75" y="175.68" width="7.8" height="5.28" transform="translate(-33.24 49.13) rotate(-12.34)"/>
  <rect class="st7" x="92.05" y="168.26" width="129" height="157.12" rx="64.5" ry="64.5" transform="translate(-49.12 39.15) rotate(-12.34)"/>
  <path class="st7" d="M332.13,111.57"/>
  <g>
    <g>
      <polygon class="st24" points="128.72 166.61 127.55 179.95 213.82 161.08 212.14 144.75 128.72 166.61"/>
      <g class="st16">
        <rect class="st24" x="131.54" y="137.62" width="10.77" height="56.62" transform="translate(-32.29 33.09) rotate(-12.34)"/>
        <rect class="st24" x="164.46" y="134.04" width="10.77" height="56.62" transform="translate(-30.77 40.04) rotate(-12.34)"/>
        <rect class="st24" x="164.46" y="134.04" width="10.77" height="56.62" transform="translate(-30.77 40.04) rotate(-12.34)"/>
        <rect class="st24" x="198.42" y="126.61" width="10.77" height="56.62" transform="translate(-28.4 47.13) rotate(-12.34)"/>
        <rect class="st24" x="181.87" y="128.69" width="10.77" height="56.62" transform="translate(-29.22 43.64) rotate(-12.34)"/>
        <rect class="st24" x="147.92" y="137.66" width="10.77" height="56.62" transform="translate(-31.92 36.59) rotate(-12.34)"/>
      </g>
    </g>
    <path class="st24" d="M263.27,313.44c-29.03,14.18-58.05,28.36-87.08,42.54-13.06-59.7-26.11-119.4-39.17-179.09l91.98-20.12,34.27,156.67Z"/>
    <path class="st24" d="M176.16,355.12c-10.68-3.51-21.36-7.02-32.05-10.53-12.42-54.35-24.85-108.7-37.27-163.05,10.11-1.56,20.22-3.12,30.33-4.68,13,59.42,25.99,118.85,38.99,178.27Z"/>
  </g>
  <rect class="st7" x="161.02" y="210.15" width="76.11" height="91.18" transform="translate(-50.05 48.44) rotate(-12.34)"/>
  <path class="st24" d="M.91,164.32c-8.11,27.42,40.21,33.28,50.71,37.13s39.2,9.58,51.99,10.07c12.79.49,17.4,6.55,26.12-1.9,8.73-8.44-2.54-30.41-61.27-44.38-58.74-13.98-62.51-17.96-67.55-.92Z"/>
  <path class="st24" d="M61.45,85.08c-19.3,11.16-52.63,34.19-58.57,66.63-.95,5.19-3.77,20.62,3.2,25.18,3.63,2.37,9.58,1.58,20.71-4.72,11.94-6.76,31.39-20.74,50.6-50.76"/>
  <ellipse class="st13" cx="81.31" cy="92.19" rx="30.64" ry="31.1" transform="translate(-32.91 137.64) rotate(-70.29)"/>
  <g>
    <path class="st1" d="M221.45,120.7c-.05-.05-.1-.1-.15-.15-.04-.03-.07-.06-.11-.1-.06-.05-.13-.1-.19-.16-.02-.02-.04-.04-.06-.06-.02-.02-.03-.04-.05-.06-.14-.13-.26-.28-.35-.45,0-.02-.02-.04-.02-.06-1.54-1.41-2.17-3.68-3.27-5.46-.23-.37-.28-.72-.23-1.04l-21.52-47.76s-9.28-17.68-32.36-21.17c-23.09-3.49-59.57,13.69-67.09,28.8-7.52,15.11-7.47,66.35,11.32,73.41,0,0,1.28,4.32-.96,6.45,0,0,7.86,12.74,9.54,12.7,1.68-.04,109.78-9.89,112.71-35.16,0,0-5.1-5.04-7.22-9.73Z"/>
    <g>
      <path class="st1" d="M107.29,149.14c-.88.99-2.01,2.58-2.25,4.66,0,0-2.65,9.84,8.35,12.63,4.17,1.06,96.96-1.39,111.88-33.78,0,0-.89-4.84-6.51-8.49,0,0-2.75-2.3-.78-6.57,1.97-4.26-10.13,1.01-10.13,1.01-33.52,10.18-67.04,20.36-100.56,30.53Z"/>
      <g class="st6">
        <path class="st1" d="M284.48,131.75"/>
        <path class="st1" d="M93.57,145.24"/>
        <path class="st1" d="M67.37,132.12c1.71.28,79.49,50.96,224.59,24.81,145.1-26.15-135.32,58.84-137.83,59.39s-93.47-12.74-93.47-12.74l6.71-71.46Z"/>
        <path class="st1" d="M135.26,78.95"/>
      </g>
    </g>
  </g>
  <path class="st21" d="M121.17,72.81"/>
  <path class="st14" d="M215.21,109.22c-1.91,8.46-9.18,14.99-16.19,17.79-2.87,1.15-5.88,1.66-11.91,2.62-4.17.66-7.68,1.01-9.39,1.14-11.52.86-25.92,1.94-36.94-6.71-7.48-5.87-10.25-13.74-11.68-17.82-1.76-5-5.1-14.35-1.11-23.09,2.53-5.54,7.12-9.21,14.88-13.11,17.14-8.62,51.78-19.71,64.32-4.87,2.4,2.84,3.4,5.93,5.24,11.58,3.04,9.33,3.11,17.72,3.12,25.3,0,3.79,0,5.69-.32,7.16Z"/>
  <path class="st9" d="M225.59,74.51"/>
  <path d="M113.12,66.88"/>
  <path d="M193.15,139.17"/>
  <path class="st7" d="M132.3,73.79c-1.96,1.56-5.06,4.49-7.19,9.11-3.92,8.48-1.74,16.48-1.05,18.7-4.23-2.28-8.46-4.56-12.68-6.84,4.11-8.67,8.23-17.34,12.34-26.01,2.86,1.68,5.72,3.36,8.58,5.04Z"/>
  <path class="st7" d="M62.16,103"/>
  <path class="st7" d="M132.09,62.73c1.55,2.6,3.09,5.2,4.64,7.81,0,0,23.45-11.05,28.85-11.32l-2.45-7.71c-2.12-.2-4.46-.25-6.97-.01-11.71,1.09-20.06,7.56-24.07,11.24Z"/>
  <path class="st7" d="M169.26,50.86l1.28,5.86s6.78-1.41,13.23-.01c6.44,1.39-14.51-5.85-14.51-5.85Z"/>
  <g>
    <rect class="st12" x="207.13" y="174.24" width="17.67" height="10.53" transform="translate(-33.37 50.29) rotate(-12.34)"/>
    <g class="st2">
      <rect class="st11" x="201.85" y="173.5" width="13.08" height="8.1" transform="translate(-33.13 48.63) rotate(-12.34)"/>
      <rect class="st5" x="214.42" y="173.07" width="11.68" height="1.64" transform="translate(-32.07 51.08) rotate(-12.34)"/>
      <rect class="st5" x="211.4" y="170.67" width="11.68" height="1.36" transform="translate(-31.59 50.38) rotate(-12.34)"/>
      <rect class="st5" x="214.88" y="175.21" width="11.68" height="1.45" transform="translate(-32.5 51.23) rotate(-12.34)"/>
      <rect class="st5" x="215.34" y="177.43" width="11.68" height="1.4" transform="translate(-32.95 51.37) rotate(-12.34)"/>
      <circle class="st12" cx="206.95" cy="176.8" r=".38"/>
      <circle class="st12" cx="209.09" cy="176.36" r=".38"/>
      <circle class="st12" cx="209.63" cy="178.55" r=".38"/>
      <circle class="st12" cx="212.63" cy="176.86" r=".38"/>
      <circle class="st12" cx="211.3" cy="175.89" r=".38"/>
      <circle class="st12" cx="211.06" cy="179.27" r=".38"/>
      <circle class="st12" cx="213.76" cy="175.39" r=".38"/>
      <circle class="st12" cx="208.19" cy="177.77" r=".38"/>
      <circle class="st12" cx="210.63" cy="177.32" r=".38"/>
      <circle class="st12" cx="214.25" cy="177.81" r=".38"/>
      <circle class="st12" cx="213.18" cy="178.93" r=".38"/>
      <circle class="st12" cx="207.42" cy="179.17" r=".38"/>
      <circle class="st12" cx="208.76" cy="179.9" r=".38"/>
      <circle class="st12" cx="210" cy="180.81" r=".38"/>
      <circle class="st12" cx="207.83" cy="181.29" r=".38"/>
      <circle class="st12" cx="212.23" cy="180.32" r=".38"/>
      <circle class="st12" cx="211.9" cy="178.05" r=".38"/>
      <circle class="st12" cx="214.76" cy="179.77" r=".38"/>
      <rect class="st5" x="207.54" y="180.63" width="18.99" height="1.4" transform="translate(-33.73 50.56) rotate(-12.34)"/>
      <rect class="st5" x="207.83" y="182.71" width="18.99" height="1.4" transform="translate(-34.17 50.67) rotate(-12.34)"/>
      <rect class="st5" x="207.07" y="183.48" width="18.99" height="1.4" transform="translate(-34.35 50.53) rotate(-12.34)"/>
    </g>
  </g>
  <g>
    <rect x="185.76" y="179.34" width="15.42" height="10.17" transform="translate(-34.94 45.6) rotate(-12.34)"/>
    <g class="st3">
      <rect class="st25" x="181.2" y="173.97" width="9.03" height="21.27" transform="translate(-35.16 43.95) rotate(-12.34)"/>
      <rect class="st23" x="195.6" y="169.72" width="9.62" height="21.27" transform="translate(-33.91 46.99) rotate(-12.34)"/>
      <rect class="st10" x="189.41" y="169.61" width="6.11" height="21.27" transform="translate(-34.07 45.29) rotate(-12.34)"/>
    </g>
  </g>
  <path class="st19" d="M82.67,185.96l-16.67-18.29c-2.82-3.09-7.61-3.32-10.71-.5l-8.28,7.55c-3.09,2.82-3.32,7.61-.5,10.71l16.67,18.29c.65.59,2.46,2.07,5.25,2.47,2.97.42,5.23-.64,5.99-1.04,3.07-2.3,6.14-4.59,9.2-6.89.49-1.12,1.4-3.62,1.01-6.83-.31-2.58-1.33-4.46-1.97-5.46Z"/>
  <path d="M126.87,132.37"/>
  <rect class="st7" x="123.28" y="103.87" width="9.07" height="60.42" transform="translate(-56.97 121.06) rotate(-42.34)"/>
  <rect class="st7" x="155.13" y="127.45" width="7.89" height="37.15" transform="translate(106.86 355.55) rotate(-118.56)"/>
  <rect x="162.93" y="128.71" width="26.92" height="15.76" rx="7.88" ry="7.88" transform="translate(-43.84 100.94) rotate(-28.56)"/>
  <path class="st15" d="M154.5,348.8c32.92,11.25,65.84,22.5,98.76,33.74,6.51,21.23,13.01,42.46,19.52,63.69,20.12-6.46,40.24-12.92,60.36-19.39-16.2-23.21-32.41-46.42-48.61-69.63-16.22-7.45-32.43-14.9-48.65-22.35-2.14-2.74-4.28-5.48-6.43-8.22-24.99,7.38-49.97,14.76-74.96,22.14Z"/>
  <path class="st15" d="M261.48,312.94c-7.69,21.61-15.39,43.22-23.08,64.83-16.92,29.7-33.84,59.4-50.76,89.09-22.35-4.02-44.71-8.04-67.06-12.05,22.15-29.69,44.3-59.39,66.45-89.08l-2.96-42.03,77.42-10.76Z"/>
  <path class="st15" d="M218.72,389.48c-6-1.01-12-2.02-18-3.04"/>
  <path class="st7" d="M223.1,326.33c-12.64,10.76-25.28,21.51-37.92,32.27-3.28-.88-6.56-1.75-9.84-2.63,11.35-10.35,22.69-20.7,34.04-31.06l13.72,1.42Z"/>
  <path class="st7" d="M220.57,320.9c14.35,2.27,28.7,4.54,43.05,6.81-.53,3.08-1.05,6.16-1.58,9.24-15.52-2.86-31.04-5.71-46.55-8.57,1.69-2.49,3.39-4.99,5.08-7.48Z"/>
  <path class="st7" d="M142.29,336.58c40.15-8.54,80.29-17.07,120.44-25.61-1.04,3.12-2.08,6.23-3.12,9.35-19.29,4.5-38.58,9-57.87,13.51-17.82,4.16-35.64,8.32-53.46,12.48-.75-.21-2.87-.91-4.46-3.01-2.18-2.89-1.64-6.16-1.53-6.71Z"/>
  <path class="st7" d="M138.66,319.17c40.15-8.54,80.29-17.07,120.44-25.61.96,4.65,1.92,9.3,2.87,13.95-20.88,4.26-41.78,8.49-62.68,12.67-19.37,3.88-38.74,7.72-58.11,11.53-.26-1.86-.59-3.81-.98-5.83-.46-2.37-.98-4.6-1.53-6.71Z"/>
  <path class="st0" d="M1029.02,170.27c-6.13,26.33-49.12,9-59.68,7.35-10.56-1.64-37.14-10.08-48.02-15.54-10.88-5.46-17.56-2.58-20.87-13.54-3.3-10.96,16.4-23.9,71.88-8.49,55.48,15.41,60.5,13.86,56.69,30.22Z"/>
  <path class="st0" d="M1052.68,228.97c-37.63-32.12-51.41-41.61-51.53-50.14-.03-2.29,3.41-4.67,5.48-10.82,3.16-9.43.77-14.4,2.66-16.28,3.04-3.03,17.06,2.15,65.8,38.96"/>
  <rect class="st21" x="890.58" y="141.73" width="7.8" height="5.28"/>
  <path class="st20" d="M775.34,450.81l-18.41,56.62,50.86,43.08,41.23-8v-35.08c-6.97-2.46-13.95-4.92-20.92-7.39-5.33-16.41-10.67-32.82-16-49.23h-36.76Z"/>
  <polygon class="st20" points="832.36 434.21 807.7 472.5 819.67 516.08 849.28 531.49 867.79 507.55 856.72 483.58 863.77 454.45 832.36 434.21"/>
  <polygon class="st15" points="792.08 291.5 803.43 391.2 807.39 396.43 851.44 397.97 856.98 392.43 864.36 335.51 888.05 390.28 892.67 395.2 924.67 386.89 927.75 380.12 916.7 283.36 796.66 281.66 793.63 285.96 792.08 291.5"/>
  <path class="st15" d="M757.99,459.49c16.69-32.63,33.37-65.27,50.06-97.9,16.45,8.94,32.91,17.87,49.36,26.81-9.68,27.58-19.37,55.17-29.05,82.75l6.14,19.17-76.5-30.83Z"/>
  <path class="st15" d="M818.96,429.76c28.75-28.04,57.51-56.08,86.26-84.12,7.88,11.95,15.75,23.91,23.63,35.86l-69.4,95.26-40.5-47.01Z"/>
  <path class="st15" d="M887.34,388.22"/>
  <rect class="st7" x="762.49" y="121.17" width="129" height="157.12" rx="64.5" ry="64.5"/>
  <g>
    <g>
      <polygon class="st24" points="816.95 115.42 812.95 128.2 901.26 128.2 903.11 111.9 816.95 115.42"/>
      <g class="st8">
        <rect class="st24" x="819.72" y="88.2" width="10.77" height="56.62"/>
        <rect class="st24" x="852.64" y="91.74" width="10.77" height="56.62"/>
        <rect class="st24" x="852.64" y="91.74" width="10.77" height="56.62"/>
        <rect class="st24" x="887.41" y="91.74" width="10.77" height="56.62"/>
        <rect class="st24" x="870.8" y="90.24" width="10.77" height="56.62"/>
        <rect class="st24" x="835.72" y="91.74" width="10.77" height="56.62"/>
      </g>
    </g>
    <path class="st24" d="M917.01,287.61c-31.39,7.65-62.77,15.3-94.16,22.96V127.23h94.16v160.37Z"/>
    <path class="st24" d="M823.01,309.72c-9.69-5.71-19.37-11.42-29.06-17.14-.52-55.75-1.05-111.5-1.57-167.25,10.21.63,20.42,1.27,30.63,1.9v182.48Z"/>
  </g>
  <rect class="st7" x="828.58" y="171.93" width="76.11" height="91.18"/>
  <path class="st24" d="M665.45,136.75c.88-28.58,48.61-19.02,59.79-19.4s40.22,3.17,52.53,6.71c12.3,3.54,18.57-.77,24.22,9.98,5.65,10.75-11.93,28.09-72.09,22.98-60.16-5.1-64.99-2.5-64.45-20.27Z"/>
  <path class="st24" d="M628.6,177.72c35.12-46.78,44.87-57.1,46.24-56.14.83.58-1.5,3.74-.2,7.04,3.98,10.11,34.52,1.78,38.89,9.45,3.04,5.34-6.04,19.39-47.74,53.46"/>
  <ellipse class="st13" cx="636.85" cy="197.13" rx="30.64" ry="31.1" transform="translate(-26.36 264.93) rotate(-23.04)"/>
  <g>
    <path class="st1" d="M917.34,90.39c-.04-.06-.08-.12-.11-.18-.03-.04-.06-.08-.09-.12-.04-.06-.1-.13-.15-.19-.02-.02-.03-.05-.04-.07-.01-.02-.03-.04-.04-.06-.11-.16-.2-.33-.25-.52,0-.02,0-.04,0-.07-1.2-1.71-1.34-4.06-2.02-6.03-.14-.41-.12-.77,0-1.07l-10.81-51.25s-5.29-19.26-27.09-27.6c-21.81-8.34-61.12.64-71.69,13.8-10.57,13.16-21.48,63.22-4.63,74.14,0,0,.33,4.49-2.31,6.1,0,0,4.96,14.12,6.61,14.44,1.65.32,109.36,13.8,117.62-10.27,0,0-3.91-6.02-4.97-11.04Z"/>
    <g>
      <path class="st1" d="M799.74,93.78c-1.07.78-2.51,2.09-3.2,4.07,0,0-4.69,9.05,5.46,14.12,3.85,1.93,95.01,19.36,116.52-9.1,0,0,.16-4.92-4.55-9.68,0,0-2.19-2.84.64-6.58,2.84-3.74-10.11-1.18-10.11-1.18-34.92,2.78-69.84,5.56-104.76,8.34Z"/>
      <g class="st17">
        <path class="st1" d="M976.56,114.65"/>
        <path class="st1" d="M787.18,87.04"/>
        <path class="st1" d="M764.39,68.62c1.6.64,66.77,66.77,214.1,72.22,147.33,5.46-144.77,28.57-147.33,28.57s-88.59-32.42-88.59-32.42l21.83-68.37Z"/>
        <path class="st1" d="M842.06,31.19"/>
      </g>
    </g>
  </g>
  <path class="st21" d="M829.62,22.17"/>
  <path class="st14" d="M913.7,77.84c-3.67,7.86-12.17,12.68-19.62,13.92-3.05.51-6.1.37-12.2.01-4.21-.24-7.72-.66-9.42-.9-11.44-1.62-25.74-3.64-34.66-14.45-6.05-7.33-7.07-15.61-7.6-19.9-.65-5.26-1.92-15.11,3.85-22.79,3.66-4.87,8.93-7.48,17.33-9.63,18.58-4.76,54.79-8.19,63.87,8.99,1.73,3.28,2.06,6.52,2.65,12.43.97,9.76-.75,17.98-2.36,25.39-.81,3.71-1.21,5.56-1.85,6.92Z"/>
  <path class="st9" d="M931.26,46.15"/>
  <path class="st9" d="M980.34,22.97"/>
  <path d="M823.01,14.66"/>
  <path class="st9" d="M970.8,0"/>
  <path d="M885.75,102.38"/>
  <path class="st7" d="M840.28,25.52c-2.24,1.11-5.9,3.31-8.97,7.36-5.64,7.44-5.22,15.73-5.02,18.04-3.64-3.13-7.29-6.26-10.93-9.39,5.87-7.59,11.74-15.18,17.61-22.77,2.44,2.25,4.87,4.5,7.31,6.76Z"/>
  <path class="st7" d="M754.35,25.19"/>
  <path class="st7" d="M842.44,14.66c.95,2.87,1.91,5.75,2.86,8.62,0,0,25.27-5.78,30.6-4.9l-.74-8.06c-2.03-.65-4.3-1.19-6.8-1.5-11.68-1.44-21.21,3.1-25.92,5.84Z"/>
  <path class="st7" d="M881.28,11.01v6s6.93.07,12.92,2.81c6,2.74-12.92-8.81-12.92-8.81Z"/>
  <path class="st7" d="M981.96,35.51"/>
  <g>
    <rect class="st12" x="890.58" y="141.4" width="17.67" height="10.53"/>
    <g class="st18">
      <rect class="st11" x="885.9" y="139.09" width="13.08" height="8.1"/>
      <rect class="st5" x="898.97" y="141.28" width="11.68" height="1.64"/>
      <rect class="st5" x="896.57" y="138.28" width="11.68" height="1.36"/>
      <rect class="st5" x="898.99" y="143.47" width="11.68" height="1.45"/>
      <rect class="st5" x="898.97" y="145.73" width="11.68" height="1.4"/>
      <circle class="st12" cx="891.19" cy="142.09" r=".38"/>
      <circle class="st12" cx="893.37" cy="142.12" r=".38"/>
      <circle class="st12" cx="893.44" cy="144.37" r=".38"/>
      <circle class="st12" cx="896.73" cy="143.37" r=".38"/>
      <circle class="st12" cx="895.64" cy="142.13" r=".38"/>
      <circle class="st12" cx="894.68" cy="145.39" r=".38"/>
      <circle class="st12" cx="898.15" cy="142.17" r=".38"/>
      <circle class="st12" cx="892.2" cy="143.31" r=".38"/>
      <circle class="st12" cx="894.68" cy="143.38" r=".38"/>
      <circle class="st12" cx="898.11" cy="144.64" r=".38"/>
      <circle class="st12" cx="896.82" cy="145.5" r=".38"/>
      <circle class="st12" cx="891.15" cy="144.51" r=".38"/>
      <circle class="st12" cx="892.29" cy="145.51" r=".38"/>
      <circle class="st12" cx="893.32" cy="146.67" r=".38"/>
      <circle class="st12" cx="891.09" cy="146.67" r=".38"/>
      <circle class="st12" cx="895.6" cy="146.67" r=".38"/>
      <circle class="st12" cx="895.76" cy="144.37" r=".38"/>
      <circle class="st12" cx="898.19" cy="146.67" r=".38"/>
      <rect class="st5" x="890.58" y="147.98" width="18.99" height="1.4"/>
      <rect class="st5" x="890.42" y="150.07" width="18.99" height="1.4"/>
      <rect class="st5" x="889.51" y="150.66" width="18.99" height="1.4"/>
    </g>
  </g>
  <g>
    <rect x="868.68" y="141.58" width="15.42" height="10.17"/>
    <g class="st4">
      <rect class="st25" x="864.27" y="134.54" width="9.03" height="21.27"/>
      <rect class="st23" x="879.23" y="133.53" width="9.62" height="21.27"/>
      <rect class="st10" x="873.25" y="131.73" width="6.11" height="21.27"/>
    </g>
  </g>
  <path class="st19" d="M743.17,150.93l-24.57-3c-4.16-.51-7.11-4.29-6.6-8.44l1.36-11.12c.51-4.16,4.29-7.11,8.44-6.6l24.57,3c.86.19,3.11.8,5.05,2.85,2.06,2.18,2.5,4.64,2.62,5.49-.1,3.83-.19,7.66-.29,11.49-.63,1.04-2.14,3.24-4.99,4.78-2.28,1.24-4.41,1.5-5.59,1.55Z"/>
  <path d="M822.45,81.58"/>
  <path class="st7" d="M864.47,335.65c-21.55,17.52-43.09,35.05-64.64,52.57.67-5.2,1.34-10.39,2.01-15.59,21.6-17.85,43.19-35.69,64.79-53.54-.72,5.52-1.45,11.04-2.17,16.56Z"/>
  <polygon class="st7" points="866.63 319.09 925.28 358.5 926.84 372.19 864.47 335.65 866.63 319.09"/>
  <path class="st23" d="M920.95,320.59"/>
  <path class="st7" d="M795.52,321.71c41.6-2.14,83.2-4.28,124.81-6.42.55,3.23,1.11,6.45,1.66,9.68-41.82,1.9-83.63,3.8-125.45,5.69l-.53-4.7c-.16-1.42-.32-2.84-.48-4.25Z"/>
  <path class="st23" d="M761.71,342.78"/>
  <path class="st7" d="M794.16,278.28c40.95.35,81.9.71,122.86,1.06.77,8.94,1.53,17.88,2.3,26.83-41.72,1.18-83.43,2.37-125.15,3.55-.94-4.12-1.77-9.48-1.77-15.75,0-6.24.83-11.57,1.77-15.68Z"/>
  <rect class="st7" x="818.48" y="53.24" width="9.07" height="60.42" transform="translate(68.54 422.69) rotate(-30)"/>
  <rect class="st7" x="847.05" y="83.22" width="7.89" height="37.15" transform="translate(990.96 947.35) rotate(-106.22)"/>
  <rect x="856.47" y="88.41" width="26.92" height="15.76" rx="7.88" ry="7.88" transform="translate(7.73 246.83) rotate(-16.22)"/>
  <ellipse class="st13" cx="1071.98" cy="217.07" rx="30.64" ry="31.1" transform="translate(.54 436.79) rotate(-23.04)"/>
</svg>